<svg width="24" height="18" viewBox="0 0 24 18" fill="none" xmlns="http://www.w3.org/2000/svg">
<path d="M13.4765 0.428802C14.2923 0.572652 14.837 1.35064 14.6932 2.16648L12.2621 15.9538C12.1183 16.7696 11.3403 17.3144 10.5244 17.1705C9.70859 17.0267 9.16383 16.2487 9.30769 15.4328L11.7388 1.64554C11.8826 0.829692 12.6606 0.284942 13.4765 0.428802ZM7.56112 3.49632C8.1469 4.0821 8.1469 5.03185 7.56112 5.61764L4.37913 8.7996L7.56112 11.9816C8.1469 12.5674 8.1469 13.5171 7.56112 14.1029C6.97533 14.6887 6.02558 14.6887 5.43979 14.1029L1.19715 9.8603C0.915848 9.579 0.757812 9.1974 0.757812 8.7996C0.757812 8.4018 0.915848 8.0203 1.19715 7.739L5.43979 3.49632C6.02558 2.91053 6.97533 2.91053 7.56112 3.49632ZM18.5611 3.49632L22.8038 7.739C23.0851 8.0203 23.2431 8.4018 23.2431 8.7996C23.2431 9.1974 23.0851 9.579 22.8038 9.8603L18.5611 14.1029C17.9753 14.6887 17.0256 14.6887 16.4398 14.1029C15.854 13.5171 15.854 12.5674 16.4398 11.9816L19.6218 8.7996L16.4398 5.61764C15.854 5.03185 15.854 4.0821 16.4398 3.49632C17.0256 2.91053 17.9753 2.91053 18.5611 3.49632Z" fill="#423535"/>
</svg>
