<svg width="22" height="22" viewBox="0 0 22 22" fill="none" xmlns="http://www.w3.org/2000/svg">
<path fill-rule="evenodd" clip-rule="evenodd" d="M9.58667 1.10056C10.3267 0.360616 11.5021 0.321672 12.2879 0.983725L12.4151 1.10056L14.3146 3.00005H17.0009C18.0553 3.00005 18.919 3.81593 18.9954 4.85079L19.0009 5.00005V7.68632L20.9004 9.5858C21.6404 10.3258 21.6793 11.5012 21.0172 12.2871L20.9004 12.4143L19.0009 14.3138V17.0001C19.0009 18.0544 18.185 18.9183 17.1501 18.9946L17.0009 19.0001H14.3146L12.4151 20.8995C11.6752 21.6395 10.4997 21.6784 9.7139 21.0163L9.58667 20.8995L7.68719 19.0001H5.00088C3.94652 19.0001 3.08272 18.1842 3.00637 17.1494L3.00088 17.0001V14.3137L1.1014 12.4143C0.361471 11.6743 0.322527 10.4988 0.984581 9.71302L1.10141 9.5858L3.00088 7.68636V5.00005C3.00088 3.94569 3.81676 3.08188 4.85162 3.00553L5.00088 3.00005H7.68719L9.58667 1.10056ZM14.0804 7.98261L9.83577 12.2271L8.06801 10.4594C7.67749 10.0689 7.04433 10.0689 6.6538 10.4594C6.26328 10.8499 6.26328 11.4831 6.6538 11.8736L9.05797 14.2778C9.48757 14.7073 10.1841 14.7073 10.6136 14.2778L15.4946 9.3968C15.8851 9.0063 15.8851 8.37314 15.4946 7.98261C15.104 7.59209 14.4709 7.59209 14.0804 7.98261Z" fill="#423535"/>
</svg>
