<svg width="19" height="21" viewBox="0 0 19 21" fill="none" xmlns="http://www.w3.org/2000/svg">
<path fill-rule="evenodd" clip-rule="evenodd" d="M8.2001 2C8.2001 0.89543 8.8955 0 10 0C11.1046 0 11.8001 0.89543 11.8001 2L12 10C12 9.6357 12.5001 4.33985 12.5001 4C12.5001 3 13.0955 2 14.2001 2C15.3046 2 16 2.89543 16 4V11.2676C16.083 11.2196 16.3001 7.42188 16.3001 7C16.3001 6 16.5626 5 17.5001 5C18.4376 5 19 5.89543 19 7V13C19 17.4183 15.4183 21 11 21H10.3263C7.29611 21 4.526 19.288 3.17087 16.5777L0.329229 10.8944C-0.0351508 10.1657 0.244949 9.2256 1.04877 8.87028C1.47173 8.68333 1.94586 8.57788 2.39208 8.72C3.50006 9.0729 3.33585 9.5797 4.00005 10.2101V4C4.00005 2.89543 4.69549 2 5.80006 2C6.80007 2 7.40879 3.31544 7.50006 4C7.62506 4.9375 7.99962 9.6342 8 9.9976L8.2001 2Z" fill="#423535"/>
</svg>
