<svg width="19" height="20" viewBox="0 0 19 20" fill="none" xmlns="http://www.w3.org/2000/svg">
<path d="M9.5 6C13.366 6 16.5 9.134 16.5 13C16.5 16.866 13.366 20 9.5 20C5.63401 20 2.5 16.866 2.5 13C2.5 9.134 5.63401 6 9.5 6ZM9.5 11C8.3954 11 7.5 11.8954 7.5 13C7.5 14.1046 8.3954 15 9.5 15C10.6046 15 11.5 14.1046 11.5 13C11.5 11.8954 10.6046 11 9.5 11ZM6.91968 0C7.58219 0 8.19782 0.327681 8.56869 0.868218L8.6562 1.00772L10.3909 4.04354C10.0978 4.01474 9.8006 4 9.5 4C7.26574 4 5.22164 4.81414 3.64817 6.16193L3.41572 6.36807L1.05923 2.24421C0.509785 1.28268 1.15623 0.0953478 2.23065 0.0054369L2.36159 0H6.91968ZM16.6384 0C17.7901 0 18.5122 1.24422 17.9408 2.24421L15.5843 6.36806C14.7521 5.60422 13.7758 4.99496 12.7008 4.5858L10.6562 1.00772C10.6092 0.9256 10.557 0.84762 10.5 0.77412C10.8755 0.28989 11.4572 0 12.0803 0H16.6384Z" fill="#423535"/>
</svg>
