<svg width="19" height="20" viewBox="0 0 19 20" fill="none" xmlns="http://www.w3.org/2000/svg">
<path fill-rule="evenodd" clip-rule="evenodd" d="M7.50003 0.5C8.8556 0.5 9.7941 1.35208 10.3945 2.55279C10.9168 3.59751 10.9661 4.85257 10.9915 6H15.8264C17.5815 6 18.9618 7.50008 18.8161 9.2491L18.455 13.5813C18.1527 17.2094 15.1199 20 11.4792 20H9.9667C8.2095 20 6.56303 19.347 5.32521 18.2379C5.0519 17.9931 4.67949 17.8866 4.31648 17.9403C4.0499 17.9797 3.77724 18.0001 3.5 18.0001C2.39178 18.0001 1.47158 17.3791 0.87596 16.3917C0.2969 15.4317 0 14.1066 0 12.5001C0 10.8937 0.2969 9.5685 0.87596 8.6086C1.47158 7.62116 2.39178 7.00012 3.5 7.00012C3.78149 7.00012 4.07864 7.04963 4.37732 7.13358C4.83483 5.9344 5.16111 4.69732 5.00687 3.39924C4.83517 1.95421 6.01551 0.5 7.50003 0.5Z" fill="#423535"/>
</svg>
